<svg xmlns="http://www.w3.org/2000/svg" width="48" height="48" viewBox="0 0 48 48">
  <rect width="48" height="48" rx="12" fill="#e8f8ee"/>
  <path d="M24 34c-3.3 0-6-2.7-6-6 0-1.4.5-2.7 1.4-3.7C18.4 22.4 16 20.2 16 17.5 16 14.5 18.5 12 21.5 12c1.5 0 2.8.6 3.8 1.7C26.7 12.6 28 12 29.5 12 32.5 12 35 14.5 35 17.5c0 2.7-2.4 4.9-3.4 7.8 1 1 1.4 2.3 1.4 3.7 0 3.3-2.7 6-6 6H24Z" fill="#3aa655"/>
  <path d="M24 14.5c-.8 0-1.5-.7-1.5-1.5S23.2 11.5 24 11.5s1.5.7 1.5 1.5S24.8 14.5 24 14.5Z" fill="#2b7f3f"/>
  <path d="M19.5 24.5c-.8 0-1.5-.7-1.5-1.5S18.7 21.5 19.5 21.5 21 22.2 21 23s-.7 1.5-1.5 1.5Z" fill="#2b7f3f"/>
  <path d="M28.5 24.5c-.8 0-1.5-.7-1.5-1.5S27.7 21.5 28.5 21.5 30 22.2 30 23s-.7 1.5-1.5 1.5Z" fill="#2b7f3f"/>
</svg>
